<mxfile host="Electron" modified="2023-08-10T15:04:30.795Z" agent="Mozilla/5.0 (Windows NT 10.0; Win64; x64) AppleWebKit/537.36 (KHTML, like Gecko) draw.io/21.6.5 Chrome/114.0.5735.243 Electron/25.3.1 Safari/537.36" etag="zHrpmn6yY2MkwJDRSuas" version="21.6.5" type="device" pages="8">
  <diagram name="Fig. 12.24" id="-9gmDzZ07Eyo2ONmhZ_K">
    <mxGraphModel dx="880" dy="511" grid="1" gridSize="10" guides="1" tooltips="1" connect="1" arrows="1" fold="1" page="1" pageScale="1" pageWidth="1169" pageHeight="827" math="0" shadow="0">
      <root>
        <mxCell id="0" />
        <mxCell id="1" parent="0" />
        <mxCell id="NRaokr2PaoaGWwxYJHFl-1" value="«metaclass»&lt;br&gt;&lt;b&gt;Class&lt;/b&gt;" style="swimlane;fontStyle=0;align=center;verticalAlign=top;childLayout=stackLayout;horizontal=1;startSize=48;horizontalStack=0;resizeParent=1;resizeParentMax=0;resizeLast=0;collapsible=0;marginBottom=0;html=1;whiteSpace=wrap;" parent="1" vertex="1">
          <mxGeometry y="30" width="90" height="40" as="geometry" />
        </mxCell>
        <mxCell id="NRaokr2PaoaGWwxYJHFl-4" style="edgeStyle=orthogonalEdgeStyle;rounded=0;orthogonalLoop=1;jettySize=auto;html=1;entryX=1;entryY=0.5;entryDx=0;entryDy=0;endSize=12;endArrow=blockThin;endFill=1;" parent="1" source="NRaokr2PaoaGWwxYJHFl-2" target="NRaokr2PaoaGWwxYJHFl-1" edge="1">
          <mxGeometry relative="1" as="geometry" />
        </mxCell>
        <mxCell id="NRaokr2PaoaGWwxYJHFl-2" value="«stereotype»&lt;br&gt;&lt;b&gt;Clock&lt;/b&gt;" style="swimlane;fontStyle=0;align=center;verticalAlign=top;childLayout=stackLayout;horizontal=1;startSize=40;horizontalStack=0;resizeParent=1;resizeParentMax=0;resizeLast=0;collapsible=0;marginBottom=0;html=1;whiteSpace=wrap;" parent="1" vertex="1">
          <mxGeometry x="200" width="170" height="100" as="geometry" />
        </mxCell>
        <mxCell id="NRaokr2PaoaGWwxYJHFl-3" value="OSVersion: String&lt;br&gt;startOperation: Operation&lt;br&gt;POSIXCompliant: Boolean" style="text;html=1;strokeColor=none;fillColor=none;align=left;verticalAlign=middle;spacingLeft=4;spacingRight=4;overflow=hidden;rotatable=0;points=[[0,0.5],[1,0.5]];portConstraint=eastwest;whiteSpace=wrap;" parent="NRaokr2PaoaGWwxYJHFl-2" vertex="1">
          <mxGeometry y="40" width="170" height="60" as="geometry" />
        </mxCell>
        <mxCell id="NRaokr2PaoaGWwxYJHFl-5" value="&lt;b&gt;Figure 12.24 Defining a Stereotype&lt;/b&gt;" style="text;html=1;align=left;verticalAlign=middle;resizable=0;points=[];autosize=1;strokeColor=none;fillColor=none;" parent="1" vertex="1">
          <mxGeometry y="100" width="220" height="30" as="geometry" />
        </mxCell>
      </root>
    </mxGraphModel>
  </diagram>
  <diagram name="Fig. 12.25" id="6K76hDjOVkO4jY5QAG9M">
    <mxGraphModel dx="880" dy="511" grid="1" gridSize="10" guides="1" tooltips="1" connect="1" arrows="1" fold="1" page="1" pageScale="1" pageWidth="1169" pageHeight="827" math="0" shadow="0">
      <root>
        <mxCell id="I7KEVsQi_iXyrKsETJeq-0" />
        <mxCell id="I7KEVsQi_iXyrKsETJeq-1" parent="I7KEVsQi_iXyrKsETJeq-0" />
        <mxCell id="I7KEVsQi_iXyrKsETJeq-7" value="«Clock»&lt;br&gt;&lt;b&gt;StopWatch&lt;/b&gt;" style="swimlane;fontStyle=0;align=center;verticalAlign=middle;childLayout=stackLayout;horizontal=1;startSize=60;horizontalStack=0;resizeParent=1;resizeParentMax=0;resizeLast=0;collapsible=0;marginBottom=0;html=1;whiteSpace=wrap;" parent="I7KEVsQi_iXyrKsETJeq-1" vertex="1">
          <mxGeometry width="110" height="60" as="geometry" />
        </mxCell>
        <mxCell id="I7KEVsQi_iXyrKsETJeq-8" value="«Creator, Clock»&lt;br&gt;&lt;b&gt;StopWatch&lt;/b&gt;" style="swimlane;fontStyle=0;align=center;verticalAlign=middle;childLayout=stackLayout;horizontal=1;startSize=60;horizontalStack=0;resizeParent=1;resizeParentMax=0;resizeLast=0;collapsible=0;marginBottom=0;html=1;whiteSpace=wrap;" parent="I7KEVsQi_iXyrKsETJeq-1" vertex="1">
          <mxGeometry y="80" width="110" height="60" as="geometry" />
        </mxCell>
        <mxCell id="I7KEVsQi_iXyrKsETJeq-9" value="&lt;b&gt;StopWatch&lt;/b&gt;" style="whiteSpace=wrap;html=1;spacingTop=12;" parent="I7KEVsQi_iXyrKsETJeq-1" vertex="1">
          <mxGeometry x="160" width="120" height="60" as="geometry" />
        </mxCell>
        <mxCell id="I7KEVsQi_iXyrKsETJeq-10" value="&lt;b&gt;StopWatch&lt;/b&gt;" style="whiteSpace=wrap;html=1;spacingTop=18;" parent="I7KEVsQi_iXyrKsETJeq-1" vertex="1">
          <mxGeometry x="160" y="80" width="120" height="60" as="geometry" />
        </mxCell>
        <mxCell id="I7KEVsQi_iXyrKsETJeq-11" value="&lt;b&gt;StopWatch&lt;/b&gt;" style="sketch=0;pointerEvents=1;shadow=0;dashed=0;html=1;strokeColor=none;fillColor=#505050;labelPosition=center;verticalLabelPosition=bottom;verticalAlign=top;outlineConnect=0;align=center;shape=mxgraph.office.concepts.clock;" parent="I7KEVsQi_iXyrKsETJeq-1" vertex="1">
          <mxGeometry x="335" width="35" height="35" as="geometry" />
        </mxCell>
        <mxCell id="I7KEVsQi_iXyrKsETJeq-12" value="" style="sketch=0;pointerEvents=1;shadow=0;dashed=0;html=1;strokeColor=none;fillColor=#505050;labelPosition=center;verticalLabelPosition=bottom;verticalAlign=top;outlineConnect=0;align=center;shape=mxgraph.office.concepts.clock;" parent="I7KEVsQi_iXyrKsETJeq-1" vertex="1">
          <mxGeometry x="250" y="10" width="20" height="20" as="geometry" />
        </mxCell>
        <mxCell id="I7KEVsQi_iXyrKsETJeq-13" value="" style="sketch=0;pointerEvents=1;shadow=0;dashed=0;html=1;strokeColor=none;fillColor=#505050;labelPosition=center;verticalLabelPosition=bottom;verticalAlign=top;outlineConnect=0;align=center;shape=mxgraph.office.concepts.clock;" parent="I7KEVsQi_iXyrKsETJeq-1" vertex="1">
          <mxGeometry x="250" y="90" width="20" height="20" as="geometry" />
        </mxCell>
        <mxCell id="I7KEVsQi_iXyrKsETJeq-14" value="" style="shape=umlActor;verticalLabelPosition=bottom;verticalAlign=top;html=1;outlineConnect=0;" parent="I7KEVsQi_iXyrKsETJeq-1" vertex="1">
          <mxGeometry x="230" y="90" width="10" height="20" as="geometry" />
        </mxCell>
        <mxCell id="I7KEVsQi_iXyrKsETJeq-15" value="&lt;b&gt;Figure 12.25 Presentation Options for an Extended Class&lt;/b&gt;" style="text;html=1;align=left;verticalAlign=middle;resizable=0;points=[];autosize=1;strokeColor=none;fillColor=none;" parent="I7KEVsQi_iXyrKsETJeq-1" vertex="1">
          <mxGeometry y="140" width="350" height="30" as="geometry" />
        </mxCell>
      </root>
    </mxGraphModel>
  </diagram>
  <diagram id="DnRP_BA48VP7wtW9L9I2" name="Fig. 12.26">
    <mxGraphModel dx="880" dy="545" grid="1" gridSize="10" guides="1" tooltips="1" connect="1" arrows="1" fold="1" page="1" pageScale="1" pageWidth="1169" pageHeight="827" math="0" shadow="0">
      <root>
        <mxCell id="0" />
        <mxCell id="1" parent="0" />
        <mxCell id="L2bsI77y_LTAUiJe4VnX-3" style="edgeStyle=orthogonalEdgeStyle;rounded=0;orthogonalLoop=1;jettySize=auto;html=1;exitX=0.5;exitY=1;exitDx=0;exitDy=0;endArrow=none;endFill=0;" edge="1" parent="1" source="L2bsI77y_LTAUiJe4VnX-1" target="L2bsI77y_LTAUiJe4VnX-2">
          <mxGeometry relative="1" as="geometry" />
        </mxCell>
        <mxCell id="L2bsI77y_LTAUiJe4VnX-8" value="type" style="edgeLabel;html=1;align=center;verticalAlign=middle;resizable=0;points=[];fontSize=11;fontFamily=Helvetica;fontColor=default;" vertex="1" connectable="0" parent="L2bsI77y_LTAUiJe4VnX-3">
          <mxGeometry x="-0.06" y="4" relative="1" as="geometry">
            <mxPoint x="10" as="offset" />
          </mxGeometry>
        </mxCell>
        <mxCell id="L2bsI77y_LTAUiJe4VnX-1" value="&lt;p style=&quot;margin:0px;margin-top:4px;text-align:center;text-decoration:underline;&quot;&gt;&lt;b&gt;:Class&lt;/b&gt;&lt;/p&gt;&lt;hr&gt;&lt;p style=&quot;margin:0px;margin-left:8px;&quot;&gt;name = &quot;Class&quot;&lt;/p&gt;" style="verticalAlign=top;align=left;overflow=fill;fontSize=12;fontFamily=Helvetica;html=1;whiteSpace=wrap;" vertex="1" parent="1">
          <mxGeometry width="120" height="60" as="geometry" />
        </mxCell>
        <mxCell id="L2bsI77y_LTAUiJe4VnX-5" style="edgeStyle=orthogonalEdgeStyle;shape=connector;rounded=0;orthogonalLoop=1;jettySize=auto;html=1;labelBackgroundColor=default;strokeColor=default;fontFamily=Helvetica;fontSize=11;fontColor=default;endArrow=none;endFill=0;" edge="1" parent="1" source="L2bsI77y_LTAUiJe4VnX-2" target="L2bsI77y_LTAUiJe4VnX-4">
          <mxGeometry relative="1" as="geometry" />
        </mxCell>
        <mxCell id="L2bsI77y_LTAUiJe4VnX-9" value="memberEnd" style="edgeLabel;html=1;align=center;verticalAlign=middle;resizable=0;points=[];fontSize=11;fontFamily=Helvetica;fontColor=default;" vertex="1" connectable="0" parent="L2bsI77y_LTAUiJe4VnX-5">
          <mxGeometry x="-0.15" y="-1" relative="1" as="geometry">
            <mxPoint y="10" as="offset" />
          </mxGeometry>
        </mxCell>
        <mxCell id="L2bsI77y_LTAUiJe4VnX-14" style="edgeStyle=orthogonalEdgeStyle;shape=connector;rounded=0;orthogonalLoop=1;jettySize=auto;html=1;exitX=1;exitY=0.25;exitDx=0;exitDy=0;entryX=0;entryY=0.5;entryDx=0;entryDy=0;labelBackgroundColor=default;strokeColor=default;fontFamily=Helvetica;fontSize=11;fontColor=default;endArrow=none;endFill=0;" edge="1" parent="1" source="L2bsI77y_LTAUiJe4VnX-2" target="L2bsI77y_LTAUiJe4VnX-11">
          <mxGeometry relative="1" as="geometry">
            <Array as="points">
              <mxPoint x="160" y="135" />
              <mxPoint x="160" y="30" />
            </Array>
          </mxGeometry>
        </mxCell>
        <mxCell id="L2bsI77y_LTAUiJe4VnX-15" value="ownedAttribute" style="edgeLabel;html=1;align=center;verticalAlign=middle;resizable=0;points=[];fontSize=11;fontFamily=Helvetica;fontColor=default;" vertex="1" connectable="0" parent="L2bsI77y_LTAUiJe4VnX-14">
          <mxGeometry x="-0.5859" y="-2" relative="1" as="geometry">
            <mxPoint x="39" y="7" as="offset" />
          </mxGeometry>
        </mxCell>
        <mxCell id="L2bsI77y_LTAUiJe4VnX-2" value="&lt;p style=&quot;margin:0px;margin-top:4px;text-align:center;text-decoration:underline;&quot;&gt;&lt;b&gt;:Property&lt;/b&gt;&lt;/p&gt;&lt;hr&gt;&lt;p style=&quot;margin:0px;margin-left:8px;&quot;&gt;isComposite = false&lt;/p&gt;" style="verticalAlign=top;align=left;overflow=fill;fontSize=12;fontFamily=Helvetica;html=1;whiteSpace=wrap;" vertex="1" parent="1">
          <mxGeometry y="120" width="120" height="60" as="geometry" />
        </mxCell>
        <mxCell id="L2bsI77y_LTAUiJe4VnX-7" style="edgeStyle=orthogonalEdgeStyle;shape=connector;rounded=0;orthogonalLoop=1;jettySize=auto;html=1;labelBackgroundColor=default;strokeColor=default;fontFamily=Helvetica;fontSize=11;fontColor=default;endArrow=none;endFill=0;" edge="1" parent="1" source="L2bsI77y_LTAUiJe4VnX-4" target="L2bsI77y_LTAUiJe4VnX-6">
          <mxGeometry relative="1" as="geometry" />
        </mxCell>
        <mxCell id="L2bsI77y_LTAUiJe4VnX-10" value="ownedEnd,&lt;br&gt;memberEnd" style="edgeLabel;html=1;align=center;verticalAlign=middle;resizable=0;points=[];fontSize=11;fontFamily=Helvetica;fontColor=default;" vertex="1" connectable="0" parent="L2bsI77y_LTAUiJe4VnX-7">
          <mxGeometry x="-0.2" relative="1" as="geometry">
            <mxPoint x="13" y="16" as="offset" />
          </mxGeometry>
        </mxCell>
        <mxCell id="L2bsI77y_LTAUiJe4VnX-4" value="&lt;p style=&quot;margin:0px;margin-top:4px;text-align:center;text-decoration:underline;&quot;&gt;&lt;b&gt;:Extension&lt;/b&gt;&lt;/p&gt;&lt;hr&gt;&lt;p style=&quot;margin:0px;margin-left:8px;&quot;&gt;isRequired = false&lt;/p&gt;" style="verticalAlign=top;align=left;overflow=fill;fontSize=12;fontFamily=Helvetica;html=1;whiteSpace=wrap;fontColor=default;" vertex="1" parent="1">
          <mxGeometry x="200" y="120" width="120" height="60" as="geometry" />
        </mxCell>
        <mxCell id="L2bsI77y_LTAUiJe4VnX-12" style="edgeStyle=orthogonalEdgeStyle;shape=connector;rounded=0;orthogonalLoop=1;jettySize=auto;html=1;labelBackgroundColor=default;strokeColor=default;fontFamily=Helvetica;fontSize=11;fontColor=default;endArrow=none;endFill=0;" edge="1" parent="1" source="L2bsI77y_LTAUiJe4VnX-6" target="L2bsI77y_LTAUiJe4VnX-11">
          <mxGeometry relative="1" as="geometry" />
        </mxCell>
        <mxCell id="L2bsI77y_LTAUiJe4VnX-13" value="type" style="edgeLabel;html=1;align=center;verticalAlign=middle;resizable=0;points=[];fontSize=11;fontFamily=Helvetica;fontColor=default;" vertex="1" connectable="0" parent="L2bsI77y_LTAUiJe4VnX-12">
          <mxGeometry x="0.28" y="1" relative="1" as="geometry">
            <mxPoint x="-16" as="offset" />
          </mxGeometry>
        </mxCell>
        <mxCell id="L2bsI77y_LTAUiJe4VnX-6" value="&lt;p style=&quot;margin:0px;margin-top:4px;text-align:center;text-decoration:underline;&quot;&gt;&lt;b&gt;:ExtensionEnd&lt;/b&gt;&lt;/p&gt;&lt;hr&gt;&lt;p style=&quot;margin:0px;margin-left:8px;&quot;&gt;isComposite = true&lt;/p&gt;" style="verticalAlign=top;align=left;overflow=fill;fontSize=12;fontFamily=Helvetica;html=1;whiteSpace=wrap;fontColor=default;" vertex="1" parent="1">
          <mxGeometry x="400" y="120" width="120" height="60" as="geometry" />
        </mxCell>
        <mxCell id="L2bsI77y_LTAUiJe4VnX-17" style="edgeStyle=orthogonalEdgeStyle;shape=connector;rounded=0;orthogonalLoop=1;jettySize=auto;html=1;labelBackgroundColor=default;strokeColor=default;fontFamily=Helvetica;fontSize=11;fontColor=default;endArrow=none;endFill=0;" edge="1" parent="1" source="L2bsI77y_LTAUiJe4VnX-11" target="L2bsI77y_LTAUiJe4VnX-16">
          <mxGeometry relative="1" as="geometry" />
        </mxCell>
        <mxCell id="L2bsI77y_LTAUiJe4VnX-21" style="edgeStyle=orthogonalEdgeStyle;shape=connector;rounded=0;orthogonalLoop=1;jettySize=auto;html=1;labelBackgroundColor=default;strokeColor=default;fontFamily=Helvetica;fontSize=11;fontColor=default;endArrow=none;endFill=0;entryX=0;entryY=0.5;entryDx=0;entryDy=0;" edge="1" parent="1" source="L2bsI77y_LTAUiJe4VnX-11" target="L2bsI77y_LTAUiJe4VnX-20">
          <mxGeometry relative="1" as="geometry" />
        </mxCell>
        <mxCell id="L2bsI77y_LTAUiJe4VnX-23" style="edgeStyle=orthogonalEdgeStyle;shape=connector;rounded=0;orthogonalLoop=1;jettySize=auto;html=1;labelBackgroundColor=default;strokeColor=default;fontFamily=Helvetica;fontSize=11;fontColor=default;endArrow=none;endFill=0;entryX=0;entryY=0.5;entryDx=0;entryDy=0;" edge="1" parent="1" source="L2bsI77y_LTAUiJe4VnX-11" target="L2bsI77y_LTAUiJe4VnX-22">
          <mxGeometry relative="1" as="geometry" />
        </mxCell>
        <mxCell id="L2bsI77y_LTAUiJe4VnX-11" value="&lt;p style=&quot;margin:0px;margin-top:4px;text-align:center;text-decoration:underline;&quot;&gt;&lt;b&gt;:Stereotype&lt;/b&gt;&lt;/p&gt;&lt;hr&gt;&lt;p style=&quot;margin:0px;margin-left:8px;&quot;&gt;name = &quot;Clock&quot;&lt;/p&gt;" style="verticalAlign=top;align=left;overflow=fill;fontSize=12;fontFamily=Helvetica;html=1;whiteSpace=wrap;fontColor=default;" vertex="1" parent="1">
          <mxGeometry x="400" width="120" height="60" as="geometry" />
        </mxCell>
        <mxCell id="L2bsI77y_LTAUiJe4VnX-27" style="edgeStyle=orthogonalEdgeStyle;shape=connector;rounded=0;orthogonalLoop=1;jettySize=auto;html=1;labelBackgroundColor=default;strokeColor=default;fontFamily=Helvetica;fontSize=11;fontColor=default;endArrow=none;endFill=0;" edge="1" parent="1" source="L2bsI77y_LTAUiJe4VnX-16" target="L2bsI77y_LTAUiJe4VnX-26">
          <mxGeometry relative="1" as="geometry" />
        </mxCell>
        <mxCell id="L2bsI77y_LTAUiJe4VnX-28" value="type" style="edgeLabel;html=1;align=center;verticalAlign=middle;resizable=0;points=[];fontSize=11;fontFamily=Helvetica;fontColor=default;" vertex="1" connectable="0" parent="L2bsI77y_LTAUiJe4VnX-27">
          <mxGeometry x="0.1" relative="1" as="geometry">
            <mxPoint x="10" y="-10" as="offset" />
          </mxGeometry>
        </mxCell>
        <mxCell id="L2bsI77y_LTAUiJe4VnX-16" value="&lt;p style=&quot;margin:0px;margin-top:4px;text-align:center;text-decoration:underline;&quot;&gt;&lt;b&gt;:Property&lt;/b&gt;&lt;/p&gt;&lt;hr&gt;&lt;p style=&quot;margin:0px;margin-left:8px;&quot;&gt;name = &quot;OSVersion&quot;&lt;/p&gt;" style="verticalAlign=top;align=left;overflow=fill;fontSize=12;fontFamily=Helvetica;html=1;whiteSpace=wrap;fontColor=default;" vertex="1" parent="1">
          <mxGeometry x="560" width="160" height="60" as="geometry" />
        </mxCell>
        <mxCell id="L2bsI77y_LTAUiJe4VnX-31" style="edgeStyle=orthogonalEdgeStyle;shape=connector;rounded=0;orthogonalLoop=1;jettySize=auto;html=1;labelBackgroundColor=default;strokeColor=default;fontFamily=Helvetica;fontSize=11;fontColor=default;endArrow=none;endFill=0;" edge="1" parent="1" source="L2bsI77y_LTAUiJe4VnX-20" target="L2bsI77y_LTAUiJe4VnX-30">
          <mxGeometry relative="1" as="geometry" />
        </mxCell>
        <mxCell id="L2bsI77y_LTAUiJe4VnX-32" value="type" style="edgeLabel;html=1;align=center;verticalAlign=middle;resizable=0;points=[];fontSize=11;fontFamily=Helvetica;fontColor=default;" vertex="1" connectable="0" parent="L2bsI77y_LTAUiJe4VnX-31">
          <mxGeometry relative="1" as="geometry">
            <mxPoint x="12" y="-11" as="offset" />
          </mxGeometry>
        </mxCell>
        <mxCell id="L2bsI77y_LTAUiJe4VnX-20" value="&lt;p style=&quot;margin:0px;margin-top:4px;text-align:center;text-decoration:underline;&quot;&gt;&lt;b&gt;:Property&lt;/b&gt;&lt;/p&gt;&lt;hr&gt;&lt;p style=&quot;margin:0px;margin-left:8px;&quot;&gt;name = &quot;startOeration&quot;&lt;/p&gt;" style="verticalAlign=top;align=left;overflow=fill;fontSize=12;fontFamily=Helvetica;html=1;whiteSpace=wrap;fontColor=default;" vertex="1" parent="1">
          <mxGeometry x="560" y="120" width="160" height="60" as="geometry" />
        </mxCell>
        <mxCell id="L2bsI77y_LTAUiJe4VnX-34" style="edgeStyle=orthogonalEdgeStyle;shape=connector;rounded=0;orthogonalLoop=1;jettySize=auto;html=1;labelBackgroundColor=default;strokeColor=default;fontFamily=Helvetica;fontSize=11;fontColor=default;endArrow=none;endFill=0;" edge="1" parent="1" source="L2bsI77y_LTAUiJe4VnX-22" target="L2bsI77y_LTAUiJe4VnX-33">
          <mxGeometry relative="1" as="geometry" />
        </mxCell>
        <mxCell id="L2bsI77y_LTAUiJe4VnX-35" value="type" style="edgeLabel;html=1;align=center;verticalAlign=middle;resizable=0;points=[];fontSize=11;fontFamily=Helvetica;fontColor=default;" vertex="1" connectable="0" parent="L2bsI77y_LTAUiJe4VnX-34">
          <mxGeometry x="0.2667" y="1" relative="1" as="geometry">
            <mxPoint x="4" y="-10" as="offset" />
          </mxGeometry>
        </mxCell>
        <mxCell id="L2bsI77y_LTAUiJe4VnX-22" value="&lt;p style=&quot;margin:0px;margin-top:4px;text-align:center;text-decoration:underline;&quot;&gt;&lt;b&gt;:Property&lt;/b&gt;&lt;/p&gt;&lt;hr&gt;&lt;p style=&quot;margin:0px;margin-left:8px;&quot;&gt;name = &quot;POSIXCompliant&quot;&lt;/p&gt;" style="verticalAlign=top;align=left;overflow=fill;fontSize=12;fontFamily=Helvetica;html=1;whiteSpace=wrap;fontColor=default;" vertex="1" parent="1">
          <mxGeometry x="560" y="220" width="160" height="60" as="geometry" />
        </mxCell>
        <mxCell id="L2bsI77y_LTAUiJe4VnX-26" value="&lt;p style=&quot;margin:0px;margin-top:4px;text-align:center;text-decoration:underline;&quot;&gt;&lt;b&gt;:PrimitiveType&lt;/b&gt;&lt;/p&gt;&lt;hr&gt;&lt;p style=&quot;margin:0px;margin-left:8px;&quot;&gt;name = &quot;String&quot;&lt;/p&gt;" style="verticalAlign=top;align=left;overflow=fill;fontSize=12;fontFamily=Helvetica;html=1;whiteSpace=wrap;fontColor=default;" vertex="1" parent="1">
          <mxGeometry x="780" width="120" height="60" as="geometry" />
        </mxCell>
        <mxCell id="L2bsI77y_LTAUiJe4VnX-30" value="&lt;p style=&quot;margin:0px;margin-top:4px;text-align:center;text-decoration:underline;&quot;&gt;&lt;b&gt;:Class&lt;/b&gt;&lt;/p&gt;&lt;hr&gt;&lt;p style=&quot;margin:0px;margin-left:8px;&quot;&gt;name = &quot;Operation&quot;&lt;/p&gt;" style="verticalAlign=top;align=left;overflow=fill;fontSize=12;fontFamily=Helvetica;html=1;whiteSpace=wrap;fontColor=default;" vertex="1" parent="1">
          <mxGeometry x="780" y="120" width="140" height="60" as="geometry" />
        </mxCell>
        <mxCell id="L2bsI77y_LTAUiJe4VnX-33" value="&lt;p style=&quot;margin:0px;margin-top:4px;text-align:center;text-decoration:underline;&quot;&gt;&lt;b&gt;:PrimitiveType&lt;/b&gt;&lt;/p&gt;&lt;hr&gt;&lt;p style=&quot;margin:0px;margin-left:8px;&quot;&gt;name = &quot;Boolean&quot;&lt;/p&gt;" style="verticalAlign=top;align=left;overflow=fill;fontSize=12;fontFamily=Helvetica;html=1;whiteSpace=wrap;fontColor=default;" vertex="1" parent="1">
          <mxGeometry x="780" y="220" width="130" height="60" as="geometry" />
        </mxCell>
        <mxCell id="L2bsI77y_LTAUiJe4VnX-36" value="&lt;b&gt;Figure 12.26 An Instance Diagram when Defining a Stereotype&lt;/b&gt;" style="text;html=1;align=left;verticalAlign=middle;resizable=0;points=[];autosize=1;strokeColor=none;fillColor=none;fontSize=11;fontFamily=Helvetica;fontColor=default;" vertex="1" parent="1">
          <mxGeometry y="280" width="350" height="30" as="geometry" />
        </mxCell>
      </root>
    </mxGraphModel>
  </diagram>
  <diagram id="SQMLAIwadkvvGh_mCprM" name="Fig. 12.27">
    <mxGraphModel dx="880" dy="545" grid="1" gridSize="10" guides="1" tooltips="1" connect="1" arrows="1" fold="1" page="1" pageScale="1" pageWidth="1169" pageHeight="827" math="0" shadow="0">
      <root>
        <mxCell id="0" />
        <mxCell id="1" parent="0" />
        <mxCell id="RvCCCSQ_e1oQ-5Q8yr0Z-1" value="«metaclass»&lt;br&gt;&lt;b&gt;Component&lt;/b&gt;" style="swimlane;fontStyle=0;align=center;verticalAlign=top;childLayout=stackLayout;horizontal=1;startSize=48;horizontalStack=0;resizeParent=1;resizeParentMax=0;resizeLast=0;collapsible=0;marginBottom=0;html=1;whiteSpace=wrap;fontFamily=Helvetica;fontSize=11;fontColor=default;" vertex="1" parent="1">
          <mxGeometry y="30" width="90" height="40" as="geometry" />
        </mxCell>
        <mxCell id="RvCCCSQ_e1oQ-5Q8yr0Z-2" value="«metaclass»&lt;br&gt;&lt;b&gt;Class&lt;/b&gt;" style="swimlane;fontStyle=0;align=center;verticalAlign=top;childLayout=stackLayout;horizontal=1;startSize=48;horizontalStack=0;resizeParent=1;resizeParentMax=0;resizeLast=0;collapsible=0;marginBottom=0;html=1;whiteSpace=wrap;fontFamily=Helvetica;fontSize=11;fontColor=default;" vertex="1" parent="1">
          <mxGeometry y="140" width="90" height="40" as="geometry" />
        </mxCell>
        <mxCell id="RvCCCSQ_e1oQ-5Q8yr0Z-5" style="edgeStyle=orthogonalEdgeStyle;shape=connector;rounded=0;orthogonalLoop=1;jettySize=auto;html=1;entryX=1;entryY=0.5;entryDx=0;entryDy=0;labelBackgroundColor=default;strokeColor=default;fontFamily=Helvetica;fontSize=11;fontColor=default;endArrow=blockThin;endFill=1;endSize=12;" edge="1" parent="1" source="RvCCCSQ_e1oQ-5Q8yr0Z-3" target="RvCCCSQ_e1oQ-5Q8yr0Z-1">
          <mxGeometry relative="1" as="geometry" />
        </mxCell>
        <mxCell id="RvCCCSQ_e1oQ-5Q8yr0Z-3" value="«stereotype»&lt;br&gt;&lt;b&gt;Clock&lt;/b&gt;" style="swimlane;fontStyle=0;align=center;verticalAlign=top;childLayout=stackLayout;horizontal=1;startSize=40;horizontalStack=0;resizeParent=1;resizeParentMax=0;resizeLast=0;collapsible=0;marginBottom=0;html=1;whiteSpace=wrap;" vertex="1" parent="1">
          <mxGeometry x="200" width="170" height="100" as="geometry" />
        </mxCell>
        <mxCell id="RvCCCSQ_e1oQ-5Q8yr0Z-4" value="OSVersion: String&lt;br&gt;startOperation: Operation&lt;br&gt;POSIXCompliant: Boolean" style="text;html=1;strokeColor=none;fillColor=none;align=left;verticalAlign=middle;spacingLeft=4;spacingRight=4;overflow=hidden;rotatable=0;points=[[0,0.5],[1,0.5]];portConstraint=eastwest;whiteSpace=wrap;" vertex="1" parent="RvCCCSQ_e1oQ-5Q8yr0Z-3">
          <mxGeometry y="40" width="170" height="60" as="geometry" />
        </mxCell>
        <mxCell id="RvCCCSQ_e1oQ-5Q8yr0Z-8" style="edgeStyle=orthogonalEdgeStyle;shape=connector;rounded=0;orthogonalLoop=1;jettySize=auto;html=1;labelBackgroundColor=default;strokeColor=default;fontFamily=Helvetica;fontSize=11;fontColor=default;endArrow=blockThin;endFill=1;endSize=12;" edge="1" parent="1" source="RvCCCSQ_e1oQ-5Q8yr0Z-6" target="RvCCCSQ_e1oQ-5Q8yr0Z-2">
          <mxGeometry relative="1" as="geometry" />
        </mxCell>
        <mxCell id="RvCCCSQ_e1oQ-5Q8yr0Z-9" value="{required}" style="edgeLabel;html=1;align=center;verticalAlign=middle;resizable=0;points=[];fontSize=11;fontFamily=Helvetica;fontColor=default;labelBackgroundColor=none;" vertex="1" connectable="0" parent="RvCCCSQ_e1oQ-5Q8yr0Z-8">
          <mxGeometry x="-0.2182" relative="1" as="geometry">
            <mxPoint y="10" as="offset" />
          </mxGeometry>
        </mxCell>
        <mxCell id="RvCCCSQ_e1oQ-5Q8yr0Z-6" value="«stereotype»&lt;br&gt;&lt;b&gt;Creator&lt;/b&gt;" style="swimlane;fontStyle=0;align=center;verticalAlign=top;childLayout=stackLayout;horizontal=1;startSize=40;horizontalStack=0;resizeParent=1;resizeParentMax=0;resizeLast=0;collapsible=0;marginBottom=0;html=1;whiteSpace=wrap;" vertex="1" parent="1">
          <mxGeometry x="200" y="120" width="170" height="80" as="geometry" />
        </mxCell>
        <mxCell id="RvCCCSQ_e1oQ-5Q8yr0Z-7" value="author: String&lt;br&gt;date: String" style="text;html=1;strokeColor=none;fillColor=none;align=left;verticalAlign=middle;spacingLeft=4;spacingRight=4;overflow=hidden;rotatable=0;points=[[0,0.5],[1,0.5]];portConstraint=eastwest;whiteSpace=wrap;" vertex="1" parent="RvCCCSQ_e1oQ-5Q8yr0Z-6">
          <mxGeometry y="40" width="170" height="40" as="geometry" />
        </mxCell>
        <mxCell id="RvCCCSQ_e1oQ-5Q8yr0Z-10" style="shape=connector;rounded=0;orthogonalLoop=1;jettySize=auto;html=1;exitX=0;exitY=0.5;exitDx=0;exitDy=0;entryX=1;entryY=0.25;entryDx=0;entryDy=0;labelBackgroundColor=default;strokeColor=default;fontFamily=Helvetica;fontSize=11;fontColor=default;endArrow=blockThin;endFill=1;endSize=12;" edge="1" parent="1" source="RvCCCSQ_e1oQ-5Q8yr0Z-4" target="RvCCCSQ_e1oQ-5Q8yr0Z-2">
          <mxGeometry relative="1" as="geometry" />
        </mxCell>
        <mxCell id="RvCCCSQ_e1oQ-5Q8yr0Z-11" value="&lt;b&gt;Figure 12.27 Defining Multiple Stereotypes on Multiple Stereotypes&lt;/b&gt;" style="text;html=1;align=left;verticalAlign=middle;resizable=0;points=[];autosize=1;strokeColor=none;fillColor=none;fontSize=11;fontFamily=Helvetica;fontColor=default;" vertex="1" parent="1">
          <mxGeometry y="200" width="370" height="30" as="geometry" />
        </mxCell>
      </root>
    </mxGraphModel>
  </diagram>
  <diagram id="3A3hAMN4hup6qj-tyA2E" name="Fig. 12.28">
    <mxGraphModel dx="880" dy="545" grid="1" gridSize="10" guides="1" tooltips="1" connect="1" arrows="1" fold="1" page="1" pageScale="1" pageWidth="1169" pageHeight="827" math="0" shadow="0">
      <root>
        <mxCell id="0" />
        <mxCell id="1" parent="0" />
        <mxCell id="-Jm5fDFAu7JgLP3bpeTU-1" value="«Clock»&lt;br&gt;&lt;b&gt;StopWatch&lt;/b&gt;" style="swimlane;fontStyle=0;align=center;verticalAlign=middle;childLayout=stackLayout;horizontal=1;startSize=60;horizontalStack=0;resizeParent=1;resizeParentMax=0;resizeLast=0;collapsible=0;marginBottom=0;html=1;whiteSpace=wrap;" vertex="1" parent="1">
          <mxGeometry width="110" height="60" as="geometry" />
        </mxCell>
        <mxCell id="-Jm5fDFAu7JgLP3bpeTU-2" value="&lt;b&gt;Figure 12.28 Using a Stereotype&lt;/b&gt;" style="text;html=1;align=left;verticalAlign=middle;resizable=0;points=[];autosize=1;strokeColor=none;fillColor=none;fontSize=11;fontFamily=Helvetica;fontColor=default;" vertex="1" parent="1">
          <mxGeometry y="60" width="190" height="30" as="geometry" />
        </mxCell>
      </root>
    </mxGraphModel>
  </diagram>
  <diagram id="sUZU-2nH2OSKQnP12ePc" name="Fig. 12.29">
    <mxGraphModel dx="880" dy="545" grid="1" gridSize="10" guides="1" tooltips="1" connect="1" arrows="1" fold="1" page="1" pageScale="1" pageWidth="1169" pageHeight="827" math="0" shadow="0">
      <root>
        <mxCell id="0" />
        <mxCell id="1" parent="0" />
        <mxCell id="N5hLH62XMQ2chOVkWE6B-1" value="«Clock»&lt;br&gt;&lt;b&gt;StopWatch&lt;/b&gt;" style="swimlane;fontStyle=0;align=center;verticalAlign=middle;childLayout=stackLayout;horizontal=1;startSize=50;horizontalStack=0;resizeParent=1;resizeParentMax=0;resizeLast=0;collapsible=0;marginBottom=0;html=1;whiteSpace=wrap;" vertex="1" parent="1">
          <mxGeometry x="15" width="90" height="50" as="geometry" />
        </mxCell>
        <mxCell id="N5hLH62XMQ2chOVkWE6B-3" style="edgeStyle=orthogonalEdgeStyle;shape=connector;rounded=0;orthogonalLoop=1;jettySize=auto;html=1;labelBackgroundColor=default;strokeColor=default;fontFamily=Helvetica;fontSize=11;fontColor=default;endArrow=oval;endFill=0;dashed=1;dashPattern=1 4;endSize=5;" edge="1" parent="1" source="N5hLH62XMQ2chOVkWE6B-2" target="N5hLH62XMQ2chOVkWE6B-1">
          <mxGeometry relative="1" as="geometry" />
        </mxCell>
        <mxCell id="N5hLH62XMQ2chOVkWE6B-2" value="«Clock»&lt;br&gt;OSVersion = &quot;3.32&quot;&lt;br&gt;startOperation = Click" style="shape=note2;boundedLbl=1;whiteSpace=wrap;html=1;size=12;verticalAlign=bottom;align=left;fontFamily=Helvetica;fontSize=11;fontColor=default;fillColor=none;gradientColor=none;" vertex="1" parent="1">
          <mxGeometry y="80" width="120" height="60" as="geometry" />
        </mxCell>
        <mxCell id="Rznpj361g_tBMAobXsxB-6" style="edgeStyle=orthogonalEdgeStyle;shape=connector;rounded=0;orthogonalLoop=1;jettySize=auto;html=1;labelBackgroundColor=default;strokeColor=default;fontFamily=Helvetica;fontSize=11;fontColor=default;endArrow=none;endFill=0;entryX=0.006;entryY=0.4;entryDx=0;entryDy=0;entryPerimeter=0;" edge="1" parent="1" source="Rznpj361g_tBMAobXsxB-1" target="Rznpj361g_tBMAobXsxB-5">
          <mxGeometry relative="1" as="geometry" />
        </mxCell>
        <mxCell id="Rznpj361g_tBMAobXsxB-8" value="baseClass" style="edgeLabel;html=1;align=center;verticalAlign=middle;resizable=0;points=[];fontSize=11;fontFamily=Helvetica;fontColor=default;" vertex="1" connectable="0" parent="Rznpj361g_tBMAobXsxB-6">
          <mxGeometry x="-0.6236" y="2" relative="1" as="geometry">
            <mxPoint x="12" y="12" as="offset" />
          </mxGeometry>
        </mxCell>
        <mxCell id="Rznpj361g_tBMAobXsxB-9" value="extensionClock" style="edgeLabel;html=1;align=center;verticalAlign=middle;resizable=0;points=[];fontSize=11;fontFamily=Helvetica;fontColor=default;" vertex="1" connectable="0" parent="Rznpj361g_tBMAobXsxB-6">
          <mxGeometry x="0.4461" relative="1" as="geometry">
            <mxPoint x="-16" y="-10" as="offset" />
          </mxGeometry>
        </mxCell>
        <mxCell id="Rznpj361g_tBMAobXsxB-1" value="&lt;p style=&quot;margin:0px;margin-top:4px;text-align:center;text-decoration:underline;&quot;&gt;&lt;b&gt;:Class&lt;/b&gt;&lt;/p&gt;&lt;hr&gt;&lt;p style=&quot;margin:0px;margin-left:8px;&quot;&gt;name = &quot;Stopwatch&quot;&lt;/p&gt;" style="verticalAlign=top;align=left;overflow=fill;fontSize=12;fontFamily=Helvetica;html=1;whiteSpace=wrap;fontColor=default;" vertex="1" parent="1">
          <mxGeometry x="160" y="3" width="140" height="50" as="geometry" />
        </mxCell>
        <mxCell id="Rznpj361g_tBMAobXsxB-3" style="edgeStyle=orthogonalEdgeStyle;shape=connector;rounded=0;orthogonalLoop=1;jettySize=auto;html=1;exitX=0.5;exitY=0;exitDx=0;exitDy=0;entryX=0.5;entryY=1;entryDx=0;entryDy=0;labelBackgroundColor=default;strokeColor=default;fontFamily=Helvetica;fontSize=11;fontColor=default;endArrow=none;endFill=0;" edge="1" parent="1" source="Rznpj361g_tBMAobXsxB-2" target="Rznpj361g_tBMAobXsxB-1">
          <mxGeometry relative="1" as="geometry" />
        </mxCell>
        <mxCell id="Rznpj361g_tBMAobXsxB-4" value="ownedOperation" style="edgeLabel;html=1;align=center;verticalAlign=middle;resizable=0;points=[];fontSize=11;fontFamily=Helvetica;fontColor=default;" vertex="1" connectable="0" parent="Rznpj361g_tBMAobXsxB-3">
          <mxGeometry x="-0.5143" y="-1" relative="1" as="geometry">
            <mxPoint x="46" as="offset" />
          </mxGeometry>
        </mxCell>
        <mxCell id="Rznpj361g_tBMAobXsxB-7" style="shape=connector;rounded=0;orthogonalLoop=1;jettySize=auto;html=1;exitX=1;exitY=0.5;exitDx=0;exitDy=0;entryX=0;entryY=0.75;entryDx=0;entryDy=0;labelBackgroundColor=default;strokeColor=default;fontFamily=Helvetica;fontSize=11;fontColor=default;endArrow=none;endFill=0;" edge="1" parent="1" source="Rznpj361g_tBMAobXsxB-2" target="Rznpj361g_tBMAobXsxB-5">
          <mxGeometry relative="1" as="geometry" />
        </mxCell>
        <mxCell id="Rznpj361g_tBMAobXsxB-10" value="startOperation" style="edgeLabel;html=1;align=center;verticalAlign=middle;resizable=0;points=[];fontSize=11;fontFamily=Helvetica;fontColor=default;" vertex="1" connectable="0" parent="Rznpj361g_tBMAobXsxB-7">
          <mxGeometry x="-0.4897" y="-2" relative="1" as="geometry">
            <mxPoint x="20" y="20" as="offset" />
          </mxGeometry>
        </mxCell>
        <mxCell id="Rznpj361g_tBMAobXsxB-2" value="&lt;p style=&quot;margin:0px;margin-top:4px;text-align:center;text-decoration:underline;&quot;&gt;&lt;b&gt;:Operation&lt;/b&gt;&lt;/p&gt;&lt;hr&gt;&lt;p style=&quot;margin:0px;margin-left:8px;&quot;&gt;name = &quot;Click&quot;&lt;/p&gt;" style="verticalAlign=top;align=left;overflow=fill;fontSize=12;fontFamily=Helvetica;html=1;whiteSpace=wrap;fontColor=default;" vertex="1" parent="1">
          <mxGeometry x="160" y="120" width="140" height="50" as="geometry" />
        </mxCell>
        <mxCell id="Rznpj361g_tBMAobXsxB-5" value="&lt;p style=&quot;margin:0px;margin-top:4px;text-align:center;text-decoration:underline;&quot;&gt;&lt;b&gt;:Clock&lt;/b&gt;&lt;/p&gt;&lt;hr&gt;&lt;p style=&quot;margin:0px;margin-left:8px;&quot;&gt;OSVersion = &quot;3.32&quot;&lt;/p&gt;&lt;p style=&quot;margin:0px;margin-left:8px;&quot;&gt;POSIXCompliant = false&lt;/p&gt;" style="verticalAlign=top;align=left;overflow=fill;fontSize=12;fontFamily=Helvetica;html=1;whiteSpace=wrap;fontColor=default;fillColor=none;gradientColor=none;" vertex="1" parent="1">
          <mxGeometry x="400" width="160" height="70" as="geometry" />
        </mxCell>
        <mxCell id="Rznpj361g_tBMAobXsxB-11" value="&lt;b&gt;Figure 12.29 Showing Values of Stereotypes and a Simple Instance Specification&lt;/b&gt;" style="text;html=1;align=left;verticalAlign=middle;resizable=0;points=[];autosize=1;strokeColor=none;fillColor=none;fontSize=11;fontFamily=Helvetica;fontColor=default;" vertex="1" parent="1">
          <mxGeometry y="170" width="440" height="30" as="geometry" />
        </mxCell>
      </root>
    </mxGraphModel>
  </diagram>
  <diagram id="cT-2zczQSWDAYJGuq3rI" name="Fig. 12.30">
    <mxGraphModel dx="880" dy="545" grid="1" gridSize="10" guides="1" tooltips="1" connect="1" arrows="1" fold="1" page="1" pageScale="1" pageWidth="1169" pageHeight="827" math="0" shadow="0">
      <root>
        <mxCell id="0" />
        <mxCell id="1" parent="0" />
        <mxCell id="khkXePc2Rsb8v9XDKlvD-1" value="«Creator, Clock»&lt;br&gt;&lt;b&gt;StopWatch&lt;/b&gt;" style="swimlane;fontStyle=0;align=center;verticalAlign=middle;childLayout=stackLayout;horizontal=1;startSize=40;horizontalStack=0;resizeParent=1;resizeParentMax=0;resizeLast=0;collapsible=0;marginBottom=0;html=1;whiteSpace=wrap;" vertex="1" parent="1">
          <mxGeometry y="20" width="110" height="70" as="geometry" />
        </mxCell>
        <mxCell id="khkXePc2Rsb8v9XDKlvD-2" value="Click()" style="text;html=1;align=left;verticalAlign=middle;resizable=0;points=[];autosize=1;strokeColor=none;fillColor=none;fontSize=11;fontFamily=Helvetica;fontColor=default;" vertex="1" parent="khkXePc2Rsb8v9XDKlvD-1">
          <mxGeometry y="40" width="110" height="30" as="geometry" />
        </mxCell>
        <mxCell id="khkXePc2Rsb8v9XDKlvD-5" style="edgeStyle=orthogonalEdgeStyle;shape=connector;rounded=0;orthogonalLoop=1;jettySize=auto;html=1;exitX=0;exitY=0.5;exitDx=0;exitDy=0;exitPerimeter=0;entryX=1;entryY=0.5;entryDx=0;entryDy=0;labelBackgroundColor=default;strokeColor=default;fontFamily=Helvetica;fontSize=11;fontColor=default;endArrow=oval;endFill=0;dashed=1;dashPattern=1 4;endSize=6;" edge="1" parent="1" source="khkXePc2Rsb8v9XDKlvD-3" target="khkXePc2Rsb8v9XDKlvD-1">
          <mxGeometry relative="1" as="geometry" />
        </mxCell>
        <mxCell id="khkXePc2Rsb8v9XDKlvD-3" value="«Clock»&lt;br&gt;OSVersion = &quot;3.32&quot;&lt;br&gt;startOperation = Clicj&lt;br&gt;«Creator»&lt;br&gt;name = &quot;Jones&quot;&lt;br&gt;date = &quot;04-04-04&quot;" style="shape=note2;boundedLbl=1;whiteSpace=wrap;html=1;size=12;verticalAlign=top;align=left;fontFamily=Helvetica;fontSize=11;fontColor=default;fillColor=none;gradientColor=none;" vertex="1" parent="1">
          <mxGeometry x="200" width="130" height="110" as="geometry" />
        </mxCell>
        <mxCell id="khkXePc2Rsb8v9XDKlvD-4" value="&lt;b&gt;Figure 12.30 Using Stereotypes and Showing Values&lt;/b&gt;" style="text;html=1;align=left;verticalAlign=middle;resizable=0;points=[];autosize=1;strokeColor=none;fillColor=none;fontSize=11;fontFamily=Helvetica;fontColor=default;" vertex="1" parent="1">
          <mxGeometry y="110" width="300" height="30" as="geometry" />
        </mxCell>
      </root>
    </mxGraphModel>
  </diagram>
  <diagram id="yrH7ZSOsBpXNNGyHD7Q2" name="Fig. 12.31">
    <mxGraphModel dx="880" dy="545" grid="1" gridSize="10" guides="1" tooltips="1" connect="1" arrows="1" fold="1" page="1" pageScale="1" pageWidth="1169" pageHeight="827" math="0" shadow="0">
      <root>
        <mxCell id="0" />
        <mxCell id="1" parent="0" />
        <mxCell id="SHirSYN1bc8SCLDszFGJ-1" value="«Clock»&lt;br&gt;&lt;b&gt;AlarmClock&lt;/b&gt;" style="swimlane;fontStyle=0;align=center;verticalAlign=middle;childLayout=stackLayout;horizontal=1;startSize=40;horizontalStack=0;resizeParent=1;resizeParentMax=0;resizeLast=0;collapsible=0;marginBottom=0;html=1;whiteSpace=wrap;" vertex="1" parent="1">
          <mxGeometry width="160" height="140" as="geometry" />
        </mxCell>
        <mxCell id="SHirSYN1bc8SCLDszFGJ-2" value="Start()" style="text;html=1;strokeColor=none;fillColor=none;align=left;verticalAlign=middle;spacingLeft=4;spacingRight=4;overflow=hidden;rotatable=0;points=[[0,0.5],[1,0.5]];portConstraint=eastwest;whiteSpace=wrap;" vertex="1" parent="SHirSYN1bc8SCLDszFGJ-1">
          <mxGeometry y="40" width="160" height="30" as="geometry" />
        </mxCell>
        <mxCell id="SHirSYN1bc8SCLDszFGJ-3" value="«Clock»&lt;br style=&quot;font-size: 12px;&quot;&gt;OSVersion = &quot;1.1&quot;&lt;br style=&quot;border-color: var(--border-color); font-size: 12px;&quot;&gt;&lt;span style=&quot;font-size: 12px;&quot;&gt;startOperation = Start&lt;/span&gt;&lt;br style=&quot;border-color: var(--border-color); font-size: 12px;&quot;&gt;&lt;span style=&quot;font-size: 12px;&quot;&gt;POSIXCompliant = true&lt;/span&gt;" style="whiteSpace=wrap;html=1;fontFamily=Helvetica;fontSize=12;fontColor=default;fillColor=none;gradientColor=none;align=left;spacingLeft=4;" vertex="1" parent="SHirSYN1bc8SCLDszFGJ-1">
          <mxGeometry y="70" width="160" height="70" as="geometry" />
        </mxCell>
        <mxCell id="SHirSYN1bc8SCLDszFGJ-4" value="«Clock»&lt;br&gt;{POSIXCompliant}&lt;br&gt;&lt;b&gt;AlarmClock&lt;/b&gt;" style="swimlane;fontStyle=0;align=center;verticalAlign=middle;childLayout=stackLayout;horizontal=1;startSize=60;horizontalStack=0;resizeParent=1;resizeParentMax=0;resizeLast=0;collapsible=0;marginBottom=0;html=1;whiteSpace=wrap;" vertex="1" parent="1">
          <mxGeometry x="230" y="25" width="130" height="90" as="geometry" />
        </mxCell>
        <mxCell id="SHirSYN1bc8SCLDszFGJ-5" value="Start()" style="text;html=1;strokeColor=none;fillColor=none;align=left;verticalAlign=middle;spacingLeft=4;spacingRight=4;overflow=hidden;rotatable=0;points=[[0,0.5],[1,0.5]];portConstraint=eastwest;whiteSpace=wrap;" vertex="1" parent="SHirSYN1bc8SCLDszFGJ-4">
          <mxGeometry y="60" width="130" height="30" as="geometry" />
        </mxCell>
        <mxCell id="SHirSYN1bc8SCLDszFGJ-6" value="&lt;b&gt;Figure 12.31 Other Notational Forms for Depicting Stereotype Values&lt;/b&gt;" style="text;html=1;align=left;verticalAlign=middle;resizable=0;points=[];autosize=1;strokeColor=none;fillColor=none;fontSize=11;fontFamily=Helvetica;fontColor=default;" vertex="1" parent="1">
          <mxGeometry y="140" width="380" height="30" as="geometry" />
        </mxCell>
      </root>
    </mxGraphModel>
  </diagram>
</mxfile>
